<?xml version="1.0" encoding="UTF-8" standalone="no"?>
<!-- Created with Inkscape (http://www.inkscape.org/) -->

<svg
   xmlns:osb="http://www.openswatchbook.org/uri/2009/osb"
   xmlns:dc="http://purl.org/dc/elements/1.1/"
   xmlns:cc="http://creativecommons.org/ns#"
   xmlns:rdf="http://www.w3.org/1999/02/22-rdf-syntax-ns#"
   xmlns:svg="http://www.w3.org/2000/svg"
   xmlns="http://www.w3.org/2000/svg"
   xmlns:xlink="http://www.w3.org/1999/xlink"
   xmlns:sodipodi="http://sodipodi.sourceforge.net/DTD/sodipodi-0.dtd"
   xmlns:inkscape="http://www.inkscape.org/namespaces/inkscape"
   width="210mm"
   height="297mm"
   viewBox="0 0 210 297"
   version="1.1"
   id="svg8"
   inkscape:version="0.92.4 (5da689c313, 2019-01-14)"
   sodipodi:docname="logo.svg">
  <defs
     id="defs2">
    <linearGradient
       inkscape:collect="always"
       id="linearGradient6337">
      <stop
         style="stop-color:#d4aa00;stop-opacity:1;"
         offset="0"
         id="stop6333" />
      <stop
         style="stop-color:#d4aa00;stop-opacity:0;"
         offset="1"
         id="stop6335" />
    </linearGradient>
    <inkscape:path-effect
       effect="bspline"
       id="path-effect6233"
       is_visible="true"
       weight="33.333333"
       steps="2"
       helper_size="0"
       apply_no_weight="true"
       apply_with_weight="true"
       only_selected="false" />
    <inkscape:path-effect
       effect="simplify"
       id="path-effect6231"
       is_visible="true"
       steps="1"
       threshold="0.0191429"
       smooth_angles="360"
       helper_size="0"
       simplify_individual_paths="false"
       simplify_just_coalesce="false"
       simplifyindividualpaths="false"
       simplifyJustCoalesce="false" />
    <inkscape:path-effect
       effect="bspline"
       id="path-effect6193"
       is_visible="true"
       weight="33.333333"
       steps="2"
       helper_size="0"
       apply_no_weight="true"
       apply_with_weight="true"
       only_selected="false" />
    <inkscape:path-effect
       effect="simplify"
       id="path-effect6191"
       is_visible="true"
       steps="1"
       threshold="0.0191429"
       smooth_angles="360"
       helper_size="0"
       simplify_individual_paths="false"
       simplify_just_coalesce="false"
       simplifyindividualpaths="false"
       simplifyJustCoalesce="false" />
    <inkscape:path-effect
       effect="bspline"
       id="path-effect6185"
       is_visible="true"
       weight="33.333333"
       steps="2"
       helper_size="0"
       apply_no_weight="true"
       apply_with_weight="true"
       only_selected="false" />
    <inkscape:path-effect
       effect="simplify"
       id="path-effect6183"
       is_visible="true"
       steps="1"
       threshold="0.0191429"
       smooth_angles="360"
       helper_size="0"
       simplify_individual_paths="false"
       simplify_just_coalesce="false"
       simplifyindividualpaths="false"
       simplifyJustCoalesce="false" />
    <linearGradient
       inkscape:collect="always"
       id="linearGradient6120">
      <stop
         style="stop-color:#d4aa00;stop-opacity:1;"
         offset="0"
         id="stop6116" />
      <stop
         style="stop-color:#d4aa00;stop-opacity:0;"
         offset="1"
         id="stop6118" />
    </linearGradient>
    <linearGradient
       id="linearGradient6084"
       osb:paint="solid">
      <stop
         style="stop-color:#000000;stop-opacity:1;"
         offset="0"
         id="stop6082" />
    </linearGradient>
    <linearGradient
       inkscape:collect="always"
       id="linearGradient4644">
      <stop
         style="stop-color:#d4aa00;stop-opacity:1;"
         offset="0"
         id="stop4640" />
      <stop
         style="stop-color:#d4aa00;stop-opacity:0;"
         offset="1"
         id="stop4642" />
    </linearGradient>
    <linearGradient
       inkscape:collect="always"
       id="linearGradient4634">
      <stop
         style="stop-color:#d4aa00;stop-opacity:1;"
         offset="0"
         id="stop4630" />
      <stop
         style="stop-color:#d4aa00;stop-opacity:0;"
         offset="1"
         id="stop4632" />
    </linearGradient>
    <linearGradient
       inkscape:collect="always"
       id="linearGradient4626">
      <stop
         style="stop-color:#d4aa00;stop-opacity:1;"
         offset="0"
         id="stop4622" />
      <stop
         style="stop-color:#d4aa00;stop-opacity:0;"
         offset="1"
         id="stop4624" />
    </linearGradient>
    <linearGradient
       inkscape:collect="always"
       xlink:href="#linearGradient4634"
       id="linearGradient4638"
       x1="154.84267"
       y1="195.6646"
       x2="179.06152"
       y2="195.6646"
       gradientUnits="userSpaceOnUse" />
    <linearGradient
       inkscape:collect="always"
       xlink:href="#linearGradient4644"
       id="linearGradient4646"
       x1="84.066604"
       y1="205.05727"
       x2="108.28547"
       y2="205.05727"
       gradientUnits="userSpaceOnUse"
       gradientTransform="matrix(0.9971085,0,0,0.9971085,3.4828858,3.4194467)" />
    <linearGradient
       inkscape:collect="always"
       xlink:href="#linearGradient6120"
       id="linearGradient6122"
       x1="45.437062"
       y1="153.19895"
       x2="176.2836"
       y2="142.61562"
       gradientUnits="userSpaceOnUse" />
    <linearGradient
       inkscape:collect="always"
       xlink:href="#linearGradient4634"
       id="linearGradient6169"
       gradientUnits="userSpaceOnUse"
       x1="154.84267"
       y1="195.6646"
       x2="179.06152"
       y2="195.6646" />
    <radialGradient
       inkscape:collect="always"
       xlink:href="#linearGradient4626"
       id="radialGradient6283"
       cx="134.6729"
       cy="90.88958"
       fx="134.6729"
       fy="90.88958"
       r="11.644262"
       gradientTransform="translate(0,-4.9005848e-5)"
       gradientUnits="userSpaceOnUse" />
    <linearGradient
       inkscape:collect="always"
       xlink:href="#linearGradient6337"
       id="linearGradient6339"
       x1="48.585143"
       y1="153.19895"
       x2="206.20812"
       y2="153.19895"
       gradientUnits="userSpaceOnUse" />
    <linearGradient
       inkscape:collect="always"
       xlink:href="#linearGradient4634"
       id="linearGradient940"
       gradientUnits="userSpaceOnUse"
       x1="154.84267"
       y1="195.6646"
       x2="179.06152"
       y2="195.6646" />
  </defs>
  <sodipodi:namedview
     id="base"
     pagecolor="#ffffff"
     bordercolor="#666666"
     borderopacity="1.0"
     inkscape:pageopacity="0.0"
     inkscape:pageshadow="2"
     inkscape:zoom="1"
     inkscape:cx="-38.03065"
     inkscape:cy="707.48816"
     inkscape:document-units="mm"
     inkscape:current-layer="g881"
     showgrid="false"
     inkscape:window-width="1920"
     inkscape:window-height="1001"
     inkscape:window-x="-9"
     inkscape:window-y="-9"
     inkscape:window-maximized="1" />
  <metadata
     id="metadata5">
    <rdf:RDF>
      <cc:Work
         rdf:about="">
        <dc:format>image/svg+xml</dc:format>
        <dc:type
           rdf:resource="http://purl.org/dc/dcmitype/StillImage" />
        <dc:title />
      </cc:Work>
    </rdf:RDF>
  </metadata>
  <g
     inkscape:label="Calque 1"
     inkscape:groupmode="layer"
     id="layer1">
    <g
       id="g6303"
       transform="matrix(0.43058827,0,0,0.43058827,-12.77989,-19.810138)">
      <g
         transform="rotate(13.675237,221.01573,102.40589)"
         id="g6277">
        <g
           id="g6135"
           transform="matrix(1.0813691,0.02571578,-0.02571578,1.0813691,-5.0422434,-12.838234)"
           style="fill:#00ff00;stroke-width:0.00119663;stroke-miterlimit:4;stroke-dasharray:0.00239327, 0.00119663;stroke-dashoffset:0" />
        <g
           id="g6331"
           transform="matrix(0.74863391,0,0,0.74863391,6.3574477,19.847621)">
          <g
             id="g6356"
             transform="translate(-9.7642823,1.5310709)">
            <g
               id="g938"
               transform="matrix(1.3623981,-0.00837414,-0.00837414,1.330019,-10.859593,-31.161711)">
              <g
                 id="g881">
                <g
                   id="g898"
                   transform="matrix(0.57234122,0,0,0.57234122,15.960683,39.613918)">
                  <path
                     d="M 206.2037,153.19901 A 78.807045,78.807045 0 0 1 127.72642,232.00536 78.807045,78.807045 0 0 1 48.592375,153.85852 78.807045,78.807045 0 0 1 126.4074,74.398169 78.807045,78.807045 0 0 1 206.19267,151.88002"
                     sodipodi:open="true"
                     sodipodi:end="6.2664476"
                     sodipodi:start="0"
                     sodipodi:ry="78.807045"
                     sodipodi:rx="78.807045"
                     sodipodi:cy="153.19901"
                     sodipodi:cx="127.39666"
                     sodipodi:type="arc"
                     id="path4518-7"
                     style="opacity:1;fill:#000000;fill-opacity:1;fill-rule:nonzero;stroke:url(#linearGradient6339);stroke-width:0.00882755;stroke-linecap:round;stroke-linejoin:round;stroke-miterlimit:4;stroke-dasharray:0.0176551, 0.00882755;stroke-dashoffset:0;stroke-opacity:1;paint-order:normal" />
                  <path
                     style="opacity:1;fill:#00ff00;fill-opacity:1;fill-rule:nonzero;stroke:#000000;stroke-width:0.00119663;stroke-linecap:round;stroke-linejoin:round;stroke-miterlimit:4;stroke-dasharray:0.00239327, 0.00119663;stroke-dashoffset:0;stroke-opacity:1;paint-order:normal"
                     id="path4518"
                     sodipodi:type="arc"
                     sodipodi:cx="126.8236"
                     sodipodi:cy="157.12361"
                     sodipodi:rx="25"
                     sodipodi:ry="25"
                     sodipodi:start="0"
                     sodipodi:end="6.2664476"
                     sodipodi:open="true"
                     d="m 151.8236,157.12361 a 25,25 0 0 1 -24.89539,24.99978 25,25 0 0 1 -25.10373,-24.79056 25,25 0 0 1 24.6853,-25.20725 25,25 0 0 1 25.31032,24.57961"
                     transform="matrix(1.0813691,0.02571578,-0.02571578,1.0813691,-5.0422438,-12.838236)" />
                  <rect
                     style="opacity:0.67699998;fill:#00ff00;fill-opacity:1;fill-rule:nonzero;stroke:none;stroke-width:0.00119663;stroke-linecap:round;stroke-linejoin:round;stroke-miterlimit:4;stroke-dasharray:0.00239327, 0.00119663;stroke-dashoffset:0;stroke-opacity:1;paint-order:normal"
                     id="rect4520"
                     width="1.9402778"
                     height="29.280552"
                     x="142.4666"
                     y="88.274841"
                     transform="matrix(1.0731202,0.13576958,-0.13576958,1.0731202,-5.0422438,-12.838236)" />
                  <rect
                     style="opacity:0.67699998;fill:#00ff00;fill-opacity:1;fill-rule:nonzero;stroke:none;stroke-width:0.00119892;stroke-linecap:round;stroke-linejoin:round;stroke-miterlimit:4;stroke-dasharray:0.00239785, 0.00119892;stroke-dashoffset:0;stroke-opacity:1;paint-order:normal"
                     id="rect4520-6"
                     width="1.9345465"
                     height="19.37289"
                     x="192.15569"
                     y="104.20085"
                     transform="matrix(0.93894373,0.53703364,-0.61695429,0.88847498,-5.0422438,-12.838236)" />
                  <rect
                     style="opacity:0.67699998;fill:#00ff00;fill-opacity:1;fill-rule:nonzero;stroke:none;stroke-width:0.00119892;stroke-linecap:round;stroke-linejoin:round;stroke-miterlimit:4;stroke-dasharray:0.00239785, 0.00119892;stroke-dashoffset:0;stroke-opacity:1;paint-order:normal"
                     id="rect4520-6-7"
                     width="1.9345465"
                     height="19.37289"
                     x="-17.377787"
                     y="224.58"
                     transform="matrix(0.72565665,-0.80214887,0.73573541,0.7929148,-5.0422438,-12.838236)" />
                  <text
                     xml:space="preserve"
                     style="font-style:normal;font-variant:normal;font-weight:normal;font-stretch:normal;font-size:15.26363277px;line-height:1.25;font-family:'Rockwell Nova';-inkscape-font-specification:'Rockwell Nova';letter-spacing:0px;word-spacing:0px;fill:#00ff00;fill-opacity:1;stroke:none;stroke-width:0.00129436;stroke-miterlimit:4;stroke-dasharray:0.00258874, 0.00129436;stroke-dashoffset:0"
                     x="105.05474"
                     y="168.12129"
                     id="text4569"
                     transform="rotate(1.3622805)"><tspan
                       sodipodi:role="line"
                       id="tspan4567"
                       x="105.05474"
                       y="168.12129"
                       style="font-style:normal;font-variant:normal;font-weight:bold;font-stretch:normal;font-size:32.77170181px;font-family:'Comic Sans MS';-inkscape-font-specification:'Comic Sans MS Bold';fill:#ffffff;stroke-width:0.00129436;stroke-miterlimit:4;stroke-dasharray:0.00258874, 0.00129436;stroke-dashoffset:0">OH</tspan></text>
                  <path
                     style="opacity:1;fill:#00ff00;fill-opacity:1;fill-rule:nonzero;stroke:url(#linearGradient4646);stroke-width:0.00119317;stroke-linecap:round;stroke-linejoin:round;stroke-miterlimit:4;stroke-dasharray:0.00238635, 0.00119317;stroke-dashoffset:0;stroke-opacity:1;paint-order:normal"
                     id="path4518-6"
                     sodipodi:type="arc"
                     sodipodi:cx="99.380814"
                     sodipodi:cy="207.8838"
                     sodipodi:rx="11.609992"
                     sodipodi:ry="11.609992"
                     sodipodi:start="0"
                     sodipodi:end="6.2664476"
                     sodipodi:open="true"
                     d="M 110.99081,207.8838 A 11.609992,11.609992 0 0 1 99.429395,219.49369 11.609992,11.609992 0 0 1 87.771228,207.98097 11.609992,11.609992 0 0 1 99.235074,196.27473 11.609992,11.609992 0 0 1 110.98918,207.68949"
                     transform="rotate(1.3622805)" />
                  <path
                     style="opacity:1;fill:#00ff00;fill-opacity:1;fill-rule:nonzero;stroke:url(#linearGradient940);stroke-width:0.00119663;stroke-linecap:round;stroke-linejoin:round;stroke-miterlimit:4;stroke-dasharray:0.00239327, 0.00119663;stroke-dashoffset:0;stroke-opacity:1;paint-order:normal"
                     id="path4518-6-2"
                     sodipodi:type="arc"
                     sodipodi:cx="166.95207"
                     sodipodi:cy="195.6646"
                     sodipodi:rx="11.64366"
                     sodipodi:ry="11.64366"
                     sodipodi:start="0"
                     sodipodi:end="6.2664476"
                     sodipodi:open="true"
                     d="m 178.59573,195.6646 a 11.64366,11.64366 0 0 1 -11.59494,11.64355 11.64366,11.64366 0 0 1 -11.69197,-11.54611 11.64366,11.64366 0 0 1 11.49709,-11.74019 11.64366,11.64366 0 0 1 11.78819,11.44787"
                     transform="matrix(1.0813691,0.02571578,-0.02571578,1.0813691,-5.0422438,-12.838236)" />
                  <path
                     style="opacity:1;fill:#00ff00;fill-opacity:1;fill-rule:nonzero;stroke:url(#radialGradient6283);stroke-width:0.00119663;stroke-linecap:round;stroke-linejoin:round;stroke-miterlimit:4;stroke-dasharray:0.00239327, 0.00119663;stroke-dashoffset:0;stroke-opacity:1;paint-order:normal"
                     id="path4518-6-0"
                     sodipodi:type="arc"
                     sodipodi:cx="134.6729"
                     sodipodi:cy="90.889587"
                     sodipodi:rx="11.64366"
                     sodipodi:ry="11.64366"
                     sodipodi:start="0"
                     sodipodi:end="6.2664476"
                     sodipodi:open="true"
                     d="M 146.31656,90.889587 A 11.64366,11.64366 0 0 1 134.72162,102.53315 11.64366,11.64366 0 0 1 123.02965,90.98703 11.64366,11.64366 0 0 1 134.52674,79.246845 11.64366,11.64366 0 0 1 146.31493,90.694708"
                     transform="matrix(1.0813691,0.02571578,-0.02571578,1.0813691,-5.0422438,-12.838236)" />
                  <path
                     transform="scale(0.26458333)"
                     inkscape:connector-curvature="0"
                     id="path6171"
                     d="m 295.72023,795.71059 c -11.96917,-10.22934 -14.33111,-11.56991 -18.80754,-10.67461 -3.75695,0.75138 -3.88204,0.58798 -3.40212,-4.44438 0.42902,-4.49871 -0.35291,-6.18344 -5.62907,-12.12814 -3.37002,-3.79704 -11.22257,-13.65143 -17.45012,-21.89866 -9.62546,-12.74713 -11.97806,-15.05899 -15.69381,-15.422 -4.31084,-0.42117 -4.35182,-0.49901 -2.97786,-5.65685 1.27096,-4.77116 0.81648,-6.37744 -5.18209,-18.31541 -3.61638,-7.19706 -8.53271,-18.0158 -10.92518,-24.04163 -4.90967,-12.3658 -6.19305,-14.28092 -10.72471,-16.00385 -3.09445,-1.17652 -3.12422,-1.3542 -0.88163,-5.26168 2.19025,-3.8163 2.11391,-5.07354 -1.35556,-22.32314 -2.02209,-10.05349 -4.12878,-22.07808 -4.68154,-26.72132 -0.76521,-6.42784 -1.9025,-9.33975 -4.76629,-12.20353 l -3.76127,-3.76129 3.25591,-3.78523 c 2.83546,-3.2964 3.25592,-5.30802 3.25592,-15.57733 0,-6.48566 0.67063,-18.32725 1.49029,-26.31463 1.11425,-10.8581 1.07096,-15.53488 -0.17157,-18.53462 -0.91403,-2.20666 -2.22105,-4.0121 -2.90451,-4.0121 -0.68345,0 -1.24264,-0.6364 -1.24264,-1.41421 0,-0.77782 0.85596,-1.41422 1.90214,-1.41422 3.753,0 6.8782,-5.64929 10.07456,-18.21139 1.78736,-7.02454 5.39226,-18.85707 8.01089,-26.29452 4.63557,-13.16596 4.69761,-13.63392 2.35205,-17.74237 -2.27575,-3.98618 -2.27359,-4.21975 0.0389,-4.21975 4.5717,0 8.44687,-4.18589 14.86601,-16.05802 3.52292,-6.51559 9.68478,-16.86404 13.69302,-22.99655 6.04707,-9.25185 7.16184,-11.93247 6.54827,-15.74621 -0.64355,-4.00013 -0.33832,-4.60269 2.35362,-4.64631 4.66211,-0.0755 8.21128,-2.64097 16.56089,-11.9707 4.17664,-4.6669 12.64487,-13.33153 18.81829,-19.25473 9.99654,-9.59135 11.15597,-11.23574 10.59879,-15.03201 -0.61631,-4.19921 -0.54581,-4.25186 4.74354,-3.54241 4.73103,0.63457 6.75792,-0.20779 17.05412,-7.08753 6.42673,-4.29423 16.7106,-10.58182 22.85304,-13.97242 8.67209,-4.78695 11.67472,-7.27716 13.43503,-11.14222 2.2032,-4.83751 2.37963,-4.92324 6.27345,-3.04854 3.6549,1.75968 5.20626,1.48758 17.67767,-3.10052 7.51915,-2.76622 18.44415,-6.37582 24.27778,-8.02134 13.76492,-3.88275 16.33373,-5.19958 18.22031,-9.34018 l 1.56217,-3.4286 4.1269,3.05114 c 3.94566,2.91715 4.73793,2.98315 18.03947,1.50283 7.65193,-0.85158 20.21292,-1.95115 27.91334,-2.44349 12.03763,-0.76966 14.45653,-1.35095 17.2513,-4.14572 l 3.25054,-3.25054 2.10234,3.20858 c 1.96019,2.99162 1.85935,3.33863 -1.49113,5.13177 -1.97642,1.05774 -6.66317,5.28188 -10.41498,9.38696 -23.53658,25.75277 -12.92353,67.50616 20.14429,79.25081 6.11442,2.17166 6.77448,2.81258 6.15499,5.97666 -0.38164,1.94928 -3.6755,27.72719 -7.3197,57.28426 l -6.62581,53.74011 -15.69787,0.11328 c -17.23237,0.12445 -28.14616,2.43714 -42.75121,9.05938 -29.15345,13.21881 -50.60994,38.81168 -59.36734,70.81216 -3.42349,12.50978 -3.51277,39.705 -0.17151,52.24409 4.61969,17.3368 14.10123,34.07692 27.02428,47.71274 l 11.74364,12.39134 -21.60407,31.01167 c -14.71818,21.12724 -22.53499,31.15372 -24.52469,31.45737 -1.60633,0.24521 -2.9206,-0.16665 -2.9206,-0.91518 0,-0.74853 -0.9546,-0.99465 -2.12132,-0.54694 -1.16673,0.44773 -2.12132,0.13959 -2.12132,-0.68486 0,-0.93809 -2.77786,-1.28463 -7.42462,-0.92622 -6.5559,0.50565 -6.84548,0.42305 -2.47488,-0.70605 3.91688,-1.01188 2.92888,-1.15369 -4.73466,-0.67957 -24.40821,1.51005 -43.9434,20.15223 -46.07856,43.97216 l -0.80557,8.987 z"
                     style="opacity:0.44900004;fill:#ff0000;fill-opacity:1;fill-rule:nonzero;stroke:#000000;stroke-width:0.67401195;stroke-linecap:round;stroke-linejoin:round;stroke-miterlimit:4;stroke-dasharray:1.34802391, 0.67401196;stroke-dashoffset:0;stroke-opacity:1;paint-order:normal" />
                  <path
                     inkscape:connector-curvature="0"
                     id="path6173"
                     d="m 457.91182,867.87368 c -2.10309,-2.57237 -5.09159,-4.25072 -8.48528,-4.76538 -2.88134,-0.43695 -13.51194,-2.43847 -23.62357,-4.44784 -27.17238,-5.39965 -26.53236,-5.35345 -30.43058,-2.19687 l -3.46127,2.80277 -1.43885,-4.45129 c -1.1085,-3.42931 -3.14347,-5.24389 -8.86347,-7.90349 -4.08354,-1.89869 -7.42462,-3.86483 -7.42462,-4.36918 0,-0.50435 1.58984,-1.64138 3.53297,-2.52674 6.94977,-3.16652 15.85717,-12.93683 19.90092,-21.82881 7.28054,-16.00951 5.06274,-34.37457 -5.88436,-48.72695 l -3.57882,-4.69207 9.77566,-13.06346 c 18.33787,-24.50537 20.42686,-28.28048 19.87631,-35.91937 -0.48728,-6.76095 -0.46574,-6.79822 5.59449,-9.67832 3.34601,-1.59017 6.5466,-3.64029 7.11243,-4.55581 0.74207,-1.2007 4.34735,-0.32652 12.93704,3.13688 15.72306,6.33962 28.33514,8.33763 46.68084,7.3952 23.541,-1.20931 43.55628,-8.85988 61.80151,-23.62278 l 8.70853,-7.0464 9.08122,9.52168 c 4.99466,5.23693 15.78457,16.77786 23.97757,25.64651 l 14.89636,16.12482 -4.76341,6.24041 c -6.55625,8.58914 -9.53471,19.57585 -8.72546,32.18576 1.51123,23.54809 19.78775,42.45495 43.82767,45.33927 8.55377,1.02628 22.93912,-1.46168 21.54008,-3.72538 -0.43304,-0.70067 -0.15094,-1.27394 0.62688,-1.27394 0.77782,0 1.78342,0.5974 2.23469,1.32756 1.01988,1.6502 -26.74267,20.23917 -43.58297,29.18187 -13.34054,7.0842 -14.92948,6.99873 -15.07666,-0.81094 -0.0643,-3.41448 -0.13775,-3.44155 -2.14297,-0.79036 -1.14199,1.50984 -2.07635,4.57891 -2.07635,6.82015 v 4.07499 l -3.72626,-2.93107 c -4.97574,-3.91392 -6.88665,-3.75648 -24.83664,2.04637 -8.46821,2.73759 -18.71105,5.67877 -22.76185,6.53594 -10.10122,2.1375 -14.94149,4.86789 -15.98254,9.01572 l -0.88022,3.5071 -4.38826,-3.69249 c -3.88595,-3.2698 -5.21688,-3.59508 -11.62719,-2.84167 -3.98141,0.46793 -16.70247,1.28081 -28.26902,1.80637 -19.10642,0.86816 -21.29527,1.23761 -23.92907,4.03887 l -2.89899,3.08328 z"
                     style="opacity:0.80899999;fill:#ff0000;fill-opacity:1;fill-rule:nonzero;stroke:#000000;stroke-width:0.67401195;stroke-linecap:round;stroke-linejoin:round;stroke-miterlimit:4;stroke-dasharray:1.34802391, 0.67401196;stroke-dashoffset:0;stroke-opacity:1;paint-order:normal"
                     transform="scale(0.26458333)" />
                  <path
                     inkscape:connector-curvature="0"
                     id="path6175"
                     d="m 682.53331,796.84197 c -0.0279,-0.65775 1.16228,-2.89919 2.64465,-4.98099 7.53481,-10.58168 8.92066,-30.17858 3.06958,-43.40594 -3.53897,-8.00042 -14.04593,-19.18976 -21.26952,-22.65087 -3.12182,-1.49578 -5.68334,-3.17694 -5.69227,-3.7359 -0.008,-0.55894 -1.07521,-0.60989 -2.36953,-0.11328 -1.67307,0.64203 -2.03072,0.38109 -1.23729,-0.9027 0.86073,-1.39272 0.0646,-1.57484 -3.48047,-0.79622 -3.21238,0.70557 -4.30516,0.53817 -3.629,-0.55588 1.48542,-2.40346 -12.93175,-1.95466 -21.79883,0.67858 -7.16109,2.12661 -7.63219,2.10811 -9.00458,-0.35356 -0.79648,-1.42866 -10.71682,-12.47202 -22.04519,-24.54079 -11.32837,-12.06877 -21.73105,-23.27826 -23.11706,-24.90998 -2.4473,-2.88115 -2.35895,-3.26825 3.06101,-13.41212 8.32396,-15.57892 11.62931,-27.71798 12.51087,-45.94684 1.60736,-33.23683 -9.64097,-60.72989 -34.24903,-83.7111 -11.14598,-10.40911 -26.37642,-19.28131 -40.81083,-23.77357 -8.22394,-2.55943 -8.26379,-2.59836 -7.49697,-7.32374 0.42993,-2.64934 2.99229,-7.20941 5.79302,-10.30948 2.76215,-3.05732 5.02209,-6.34054 5.02209,-7.29598 0,-0.95546 1.96412,-17.26645 4.36471,-36.24665 4.36462,-34.50868 4.45762,-42.23267 0.54762,-45.47769 -1.14615,-0.95121 -2.0839,-3.87894 -2.0839,-6.50607 0,-3.96891 0.53804,-4.80042 3.18198,-4.91755 3.0716,-0.13607 3.05934,-0.18395 -0.35355,-1.38014 -2.54939,-0.89353 -1.66186,-1.02727 3.18198,-0.47948 4.61405,0.5218 6.71751,0.24234 6.71751,-0.89249 0,-0.90869 0.9546,-1.28586 2.12132,-0.83814 1.16673,0.44771 2.12132,0.32544 2.12132,-0.27171 0,-0.59715 2.15475,-1.86489 4.78832,-2.8172 8.00443,-2.89445 17.32299,-12.29051 22.38332,-22.56951 4.13591,-8.40122 4.63544,-10.69187 4.53265,-20.7852 -0.12612,-12.38429 -2.86479,-20.54022 -9.57495,-28.5148 -3.23766,-3.84773 -3.44699,-4.6496 -1.61147,-6.17294 1.16025,-0.96293 2.10955,-3.22954 2.10955,-5.03692 v -3.28614 l 7.42462,2.15417 c 12.3218,3.57503 39.19522,14.65488 51.97235,21.42807 106.71361,56.56923 168.73573,172.19803 156.8672,292.44997 -5.29831,53.6826 -26.48299,107.41338 -59.39873,150.65328 -9.03863,11.87364 -35.10228,39.68139 -35.1925,37.5475 z"
                     style="opacity:0.44900004;fill:#0000ff;fill-opacity:1;fill-rule:nonzero;stroke:#000000;stroke-width:0.67401195;stroke-linecap:round;stroke-linejoin:round;stroke-miterlimit:4;stroke-dasharray:1.34802391, 0.67401196;stroke-dashoffset:0;stroke-opacity:1;paint-order:normal"
                     transform="scale(0.26458333)" />
                  <path
                     transform="scale(0.26458333)"
                     inkscape:connector-curvature="0"
                     id="path6177"
                     d="m 290.55345,770.0999 c -1.1699,-0.96828 -3.30708,-3.6697 -4.74929,-6.00315 -4.19536,-6.78799 -21.7791,-27.39762 -24.71623,-28.96953 -1.47583,-0.78984 -5.16049,-1.43606 -8.18814,-1.43606 h -5.50483 l 1.42011,-6.93249 c 1.62763,-7.94558 0.9695,-10.05631 -12.38989,-39.73656 -10.9658,-24.36249 -12.50299,-26.96341 -18.86889,-31.92627 l -5.57863,-4.3491 3.32151,-3.86148 c 4.23608,-4.92473 4.28883,-11.0572 0.27009,-31.39489 -2.2129,-11.19886 -2.95481,-19.59747 -2.69983,-30.56284 0.38295,-16.4686 -1.26894,-21.75153 -7.91322,-25.30744 l -3.28608,-1.75866 3.87908,-2.39232 c 7.64172,-4.71283 9.52361,-8.11445 9.70685,-17.54566 0.094,-4.83816 0.8117,-10.02209 1.59489,-11.51984 2.69048,-5.14519 13.08345,-41.66522 13.08345,-45.97416 0,-2.37111 -0.65879,-5.54206 -1.46398,-7.04656 -1.10859,-2.07143 -1.00428,-2.73546 0.42969,-2.73546 3.72311,0 10.86338,-9.54509 24.33198,-32.52691 7.52142,-12.83399 14.27872,-24.28912 15.01622,-25.45584 3.84567,-6.08378 5.68824,-12.13057 4.92925,-16.17636 -0.82609,-4.40341 -0.82388,-4.40516 4.88044,-3.86117 8.53596,0.81404 12.81162,-1.67973 25.9105,-15.11221 8.50483,-8.72144 15.45153,-14.2535 24.23216,-19.29748 14.1088,-8.10473 17.69925,-12.20333 17.69925,-20.20421 v -5.62545 l 4.99513,1.71725 c 4.12017,1.41644 6.907,1.29501 15.9099,-0.69325 18.65259,-4.11936 59.98793,-18.48208 63.60739,-22.10155 3.10249,-3.10248 3.47891,-3.15939 6.74446,-1.01972 2.63184,1.72443 6.10622,2.14564 14.53449,1.76201 l 11.0759,-0.50413 -2.79347,4.73446 c -3.50484,5.94012 -4.71615,22.05614 -2.47073,32.87227 3.69934,17.81963 14.79133,33.84264 29.87098,43.15032 6.92998,4.27743 8.12116,5.5707 7.02225,7.62406 -1.82425,3.40863 -10.19931,70.19581 -9.61192,76.65041 l 0.47553,5.22539 -9.22233,0.83122 c -22.37478,2.01663 -40.20745,7.48505 -55.38223,16.98305 -9.26096,5.79651 -13.29292,12.47945 -11.92579,19.76688 l 0.86737,4.62343 -5.49516,-1.46675 c -4.63927,-1.23829 -6.24068,-1.03138 -10.28171,1.32851 -6.3806,3.72615 -10.94969,13.22814 -16.58966,24.05782 -7.73083,14.84448 -15.62639,32.85644 -16.07961,48.05499 -0.35058,11.75661 1.92227,16.40221 10.05526,20.55244 4.29762,2.19307 4.40045,2.40979 1.56966,3.30826 -4.00215,1.27023 -8.47903,8.80205 -8.48565,14.27609 -0.016,13.19495 13.6887,38.84781 30.39263,56.89005 4.28222,4.62531 7.78585,8.80189 7.78585,9.2813 0,0.4794 -1.76758,0.87163 -3.92796,0.87163 -5.83673,0 -8.4824,2.46976 -19.89775,18.5747 l -10.39066,14.65932 -9.70166,0.0431 c -7.62905,0.0339 -10.57022,0.68521 -13.76719,3.04884 -3.56595,2.63642 -4.76262,2.8197 -9.73865,1.49152 -4.89299,-1.30601 -6.56164,-1.08414 -12.13419,1.61349 -9.08332,4.39716 -19.05462,13.59089 -25.08579,23.12956 -4.34816,6.87688 -5.47316,7.86325 -7.27115,6.37513 z"
                     style="opacity:1;fill:#ff6600;fill-opacity:1;fill-rule:nonzero;stroke:#000000;stroke-width:0.67401195;stroke-linecap:round;stroke-linejoin:round;stroke-miterlimit:4;stroke-dasharray:1.34802391, 0.67401196;stroke-dashoffset:0;stroke-opacity:1;paint-order:normal"
                     sodipodi:nodetypes="cccsccsscsssscsssscsscccsssccsccccssscsccsccccsscccssssccccssc" />
                  <path
                     transform="scale(0.26458333)"
                     inkscape:connector-curvature="0"
                     id="path6179"
                     d="m 703.14483,739.87458 c -1.42236,-3.43893 -5.96024,-9.8207 -10.0842,-14.18172 l -7.49812,-7.92914 -7.7113,0.63948 c -7.65621,0.63491 -7.72341,0.60594 -9.40852,-4.05413 -0.93348,-2.58148 -3.99447,-6.44502 -6.8022,-8.58566 -4.78046,-3.64466 -6.03964,-3.89995 -19.80862,-4.01614 l -14.70366,-0.12403 -10.32144,-10.83607 c -10.41835,-10.9378 -11.84677,-11.66442 -21.46025,-10.9165 -2.74506,0.21356 -2.9562,-0.38297 -2.57238,-7.26808 0.26518,-4.75692 2.24154,-11.63935 5.40275,-18.81444 5.09782,-11.57067 9.3568,-31.14736 9.34724,-42.96521 -0.007,-8.07991 -4.07756,-15.19937 -10.15164,-17.75333 -4.33789,-1.82396 -4.37146,-1.90773 -1.401,-3.49748 3.85518,-2.06328 7.31529,-8.67635 7.31529,-13.98127 0,-5.57613 -4.75575,-18.96859 -10.11675,-28.48936 -10.28742,-18.26976 -30.68549,-39.65115 -40.68603,-42.64739 -4.85276,-1.45392 -6.31884,-1.3017 -11.32687,1.17607 l -5.75261,2.84617 v -4.13545 c 0,-2.27449 -0.97093,-6.01302 -2.15763,-8.30785 -1.91105,-3.69557 -1.91873,-4.63441 -0.0672,-8.21487 1.14974,-2.22336 3.09365,-12.18134 4.3198,-22.12887 2.49887,-20.27283 1.72312,-25.47261 -4.53456,-30.39491 -2.00698,-1.57869 -3.3928,-3.05077 -3.0796,-3.27129 0.31319,-0.22053 2.28893,-1.13862 4.39051,-2.0402 5.9194,-2.53945 8.79768,-9.3882 8.85619,-21.07289 l 0.0507,-10.11861 7.86794,-4.32779 c 11.5943,-6.37748 13.34526,-8.83324 13.34526,-18.71697 0,-8.18774 0.0708,-8.33681 3.95932,-8.33681 6.77374,0 12.31364,-3.92671 15.60451,-11.06056 2.55674,-5.54244 3.03176,-9.05919 2.92485,-21.65383 l -0.12764,-15.03672 12.14804,5.58586 c 14.78481,6.79829 23.80575,11.88246 40.44424,22.79422 12.06526,7.91258 13.07766,8.30627 19.44544,7.56177 l 6.71751,-0.7854 v 4.97609 c 0,7.12713 1.52234,9.36473 18.23565,26.80359 8.24911,8.60721 18.49855,20.4883 22.77655,26.40241 8.51591,11.77282 12.98151,15.22376 19.69995,15.22376 h 4.41431 l -2.15764,4.17241 c -3.31674,6.41386 -2.74716,9.17124 5.61227,27.17019 4.27344,9.20129 10.29584,24.36705 13.38312,33.70169 6.99295,21.14376 7.3157,21.73112 13.5737,24.70072 l 5.12604,2.43248 -2.86162,3.05517 c -5.05337,5.39518 -5.99348,10.01913 -4.2988,21.14368 0.85427,5.60767 1.65305,22.2873 1.77509,37.06583 0.23039,27.90058 0.82199,31.04636 6.5995,35.09309 2.7838,1.94984 2.74222,2.05345 -1.5347,3.825 -6.3094,2.61346 -8.02927,6.03488 -13.34547,26.54884 -2.61004,10.07157 -7.66062,25.76727 -11.22351,34.87934 -7.17447,18.34869 -7.37577,19.52124 -4.34794,25.32684 2.62287,5.02911 2.61962,5.14164 -0.14854,5.14164 -5.98573,0 -11.95102,4.82323 -18.08905,14.62587 -3.4862,5.56758 -7.83065,12.12548 -9.65435,14.5731 l -3.31581,4.45025 z"
                     style="opacity:0.74100001;fill:#0000ff;fill-opacity:1;fill-rule:nonzero;stroke:#000000;stroke-width:0.67401195;stroke-linecap:round;stroke-linejoin:round;stroke-miterlimit:4;stroke-dasharray:1.34802391, 0.67401196;stroke-dashoffset:0;stroke-opacity:1;paint-order:normal" />
                </g>
              </g>
            </g>
          </g>
        </g>
      </g>
    </g>
  </g>
</svg>
